<svg width="52" height="45" viewBox="0 0 52 45" fill="none" xmlns="http://www.w3.org/2000/svg">
<g clip-path="url(#clip0_197_27)">
<rect width="52" height="44.28" fill="white"/>
<g clip-path="url(#clip1_197_27)">
<path d="M19.1976 38.2288C15.398 38.1552 11.5892 38.0724 7.78959 38.008C7.05359 37.9988 6.63039 37.6584 6.41879 36.9776C4.90999 32.1292 3.40119 27.2808 1.88319 22.4416C1.76359 22.0736 1.83719 21.7516 1.95679 21.4204C3.59439 16.802 5.23199 12.1836 6.87879 7.56515C7.33879 6.27715 7.46759 6.18515 8.83839 6.20355C12.546 6.25875 16.2444 6.32315 19.952 6.38755C18.894 9.58915 17.8268 12.7908 16.778 15.9924C16.4008 17.1332 16.5572 17.538 17.56 18.2004C19.2068 19.286 20.8444 20.3992 22.5096 21.448C22.9604 21.7332 23.3468 22.1564 23.908 22.2852C23.9632 22.1932 24.0092 22.138 24.0276 22.0736C25.0764 18.9272 26.1068 15.7716 27.1924 12.6252C27.8548 10.6932 28.3332 8.69675 29.1428 6.81995C29.4004 7.14195 29.4648 7.54675 29.566 7.92395C30.9 12.5976 32.2248 17.2804 33.5588 21.954C33.614 22.1472 33.5956 22.4324 33.9084 22.46C33.9084 22.8372 34.2488 22.8556 34.4696 22.9752C37.1008 24.4748 39.7412 25.956 42.3724 27.4464C43.5592 28.118 43.6972 28.4492 43.2648 29.7556C41.8664 33.9508 40.468 38.1552 39.0604 42.3504C38.6372 43.62 37.9564 43.8776 36.7788 43.1968C34.028 41.6144 31.2772 40.0136 28.5264 38.422C27.4684 34.7604 26.4196 31.0988 25.3616 27.4372C24.8924 25.7904 24.4232 24.1528 23.9448 22.4968C23.7976 22.5336 23.7148 22.5428 23.6596 22.5796C21.4516 23.8952 19.2344 25.1924 17.0356 26.5264C16.3088 26.968 16.134 27.5384 16.41 28.4768C16.9804 30.418 17.5968 32.3407 18.1304 34.2819C18.4892 35.5975 19.032 36.8764 19.1976 38.2472V38.2288Z" fill="#FD9924"/>
<path d="M33.8994 22.46C33.5774 22.4324 33.5958 22.138 33.5498 21.954C32.2158 17.2804 30.891 12.5976 29.557 7.92402C29.4466 7.54682 29.3822 7.14202 29.1338 6.82002C29.1798 6.72802 29.2258 6.62682 29.281 6.53482C32.1514 5.00762 35.0218 3.46202 37.9014 1.95322C38.7662 1.50242 39.4746 1.86122 39.7782 2.90082C40.7534 6.21282 41.7102 9.53402 42.667 12.8552C42.989 13.9592 43.3202 15.0632 43.6238 16.1764C43.8538 17.0044 43.6882 17.4828 42.9338 17.8692C39.9254 19.4148 36.9078 20.942 33.8994 22.4692V22.46Z" fill="#FBBE2A"/>
<path d="M40.4947 11.2276C37.4306 8.71691 33.6658 7.75161 29.9539 8.54098C28.4919 8.85392 26.9968 9.48556 25.6486 10.3582C24.8319 10.8892 23.1776 12.4812 22.6157 13.2769C21.7253 14.548 21.0484 15.9747 20.6753 17.364C19.7718 20.7295 20.3687 24.3186 22.3453 27.3659C22.8763 28.1826 24.4684 29.8369 25.264 30.3988C28.1959 32.4631 31.6783 33.2011 35.0477 32.4863C36.5097 32.1734 38.0104 31.5364 39.3531 30.6691C40.2739 30.0698 41.8296 28.5408 42.4863 27.6008C45.392 23.4131 45.4992 18.1055 42.7663 13.8529C42.3302 13.168 41.0276 11.66 40.4947 11.2276ZM33.816 13.7462C33.9861 14.4747 33.6066 15.3497 32.7684 16.1563C32.1621 16.7292 31.664 17.0173 31.0445 17.1462C29.8925 17.3839 29.2582 16.5923 29.6538 15.4362C30.0719 14.2372 31.2669 13.1722 32.4236 12.9725C33.1621 12.846 33.6817 13.132 33.816 13.7462ZM40.0812 20.3668C40.1834 21.2456 39.352 22.5449 38.2789 23.1846C36.9979 23.9395 35.946 23.7515 35.7491 22.7302C35.69 22.4259 35.8652 21.7581 36.1283 21.3031C36.6159 20.4302 37.8349 19.5227 38.676 19.4143C39.4302 19.3151 40.002 19.6995 40.0812 20.3668ZM26.9897 18.3187C27.2288 18.832 27.9741 20.0479 28.5063 20.7996C29.0545 21.5679 31.5327 24.1431 32.2741 24.7148C33.0263 25.2868 33.9132 25.8883 34.5987 26.2695C35.2948 26.6618 35.4434 26.8162 35.4747 27.1577C35.4971 27.4017 35.4801 27.4393 35.1889 27.6665C34.524 28.1895 33.3374 28.5348 32.2277 28.5406C28.4169 28.5649 24.7674 24.9713 24.6792 21.1051C24.6575 19.9789 24.9666 18.8211 25.5293 17.9821C26.02 17.2338 26.5482 17.3522 26.9897 18.3187Z" fill="white"/>
<path d="M24 22H19.5L20.5 25L24 23V22Z" fill="#FD9924"/>
<path d="M19.1977 38.2288C19.0321 36.858 18.4893 35.5884 18.1305 34.2636C17.5969 32.3132 16.9805 30.3904 16.4101 28.4584C16.1341 27.52 16.3089 26.9496 17.0357 26.508C19.2345 25.1832 21.4517 23.8768 23.6597 22.5612C23.7149 22.5244 23.7977 22.5244 23.9449 22.4784C24.4233 24.1344 24.8833 25.7812 25.3617 27.4188C26.4197 31.0804 27.4685 34.742 28.5265 38.4036C26.5761 39.8756 24.6257 41.3568 22.6753 42.8288C21.6817 43.574 20.8169 43.298 20.4489 42.102C20.1177 41.0348 19.8141 39.9492 19.4921 38.8728C19.4185 38.6336 19.4093 38.376 19.1885 38.2104L19.1977 38.2288Z" fill="#FBBE2A"/>
<path d="M23.8894 22.2852L1.81861 22.0644C1.81861 22.0644 1.80021 21.816 2.07621 21.034C2.35221 20.252 7.09941 6.94881 7.09941 6.94881C7.09941 6.94881 7.29261 6.52561 7.46741 6.42441C7.64221 6.32321 7.90901 6.20361 8.36901 6.20361C8.82901 6.20361 29.2714 6.53481 29.2714 6.53481L23.8986 22.2852H23.8894Z" fill="#FEA832"/>
<path d="M29.2716 6.53478C29.2256 6.62678 29.1796 6.72798 29.1244 6.81998C28.3056 8.69678 27.8364 10.6932 27.174 12.6252C26.0884 15.7624 25.0672 18.918 24.0092 22.0736C23.9908 22.138 23.9356 22.2024 23.8896 22.2852C23.3284 22.1472 22.942 21.724 22.4912 21.448C20.8168 20.3992 19.1884 19.286 17.5416 18.2004C16.548 17.538 16.3916 17.1332 16.7596 15.9924C17.8084 12.7908 18.8756 9.58918 19.9336 6.38758C20.3292 5.20078 20.7432 4.02318 21.1204 2.83638C21.6172 1.29078 22.3716 1.04238 23.6412 2.07278C25.3524 3.45278 27.0452 4.85118 28.7472 6.24958C28.9036 6.37838 29.0416 6.51638 29.2624 6.53478H29.2716Z" fill="#FDDA41"/>
</g>
</g>
<defs>
<clipPath id="clip0_197_27">
<rect width="52" height="44.28" fill="white"/>
</clipPath>
<clipPath id="clip1_197_27">
<rect width="46" height="46" fill="white" transform="translate(1 -1)"/>
</clipPath>
</defs>
</svg>
