<svg width="106" height="32" viewBox="0 0 106 32" fill="none" xmlns="http://www.w3.org/2000/svg">
<g clip-path="url(#clip0_196_2)">
<path d="M20.6942 2.22669C19.0421 2.21766 17.4294 2.89333 16.1735 3.97318C14.4956 5.40443 12.9367 6.85867 12.2463 8.95449C10.444 8.52046 9.29739 8.12724 8.09791 6.64877C7.20085 5.55989 6.53554 4.22116 6.48865 2.8052C5.72207 3.17881 4.97729 3.60586 4.29838 4.12947C3.80228 4.51974 3.0983 4.898 2.7918 5.46397C2.55259 5.89799 2.6843 6.49608 2.82566 6.9808C2.99487 7.58844 3.4441 8.06276 3.92457 8.43568C4.66193 8.99609 5.5141 9.37529 6.37719 9.68432C8.29567 10.3531 10.0349 10.7261 12.0499 10.8941C11.7923 12.0906 11.918 13.2683 11.9309 14.4947C11.9581 16.4267 12.361 18.4155 13.4314 20.0377C14.2523 21.2953 15.5327 22.2307 16.9728 22.5883C18.1933 22.889 19.5151 22.9433 20.7078 22.4926C22.1152 21.969 23.2691 20.8606 24.0038 19.5412C24.419 18.7828 24.7221 17.9377 24.7466 17.062C24.7636 16.4564 24.8648 15.7208 24.4414 15.2764C23.95 14.7611 22.8206 14.2381 22.137 14.2603C21.9168 15.5596 20.8927 16.4591 19.9209 17.3021C19.2834 17.8347 18.9591 18.4608 18.1062 18.3872C17.4334 18.3559 16.9543 18.4547 16.5194 17.9117C15.9492 17.211 15.8058 16.35 15.814 15.466C15.8473 13.8778 16.0444 12.3996 16.6968 10.969C16.7308 10.8572 16.8715 10.894 16.9564 10.8724C18.6248 10.7204 20.2925 10.3378 21.8006 9.57526C22.8254 9.04679 23.7897 8.33151 24.4489 7.35721C24.9396 6.63291 25.2427 5.72733 25.0857 4.84331C24.9688 4.1329 24.5339 3.50792 23.9651 3.09611C23.0211 2.41417 21.8277 2.21836 20.6942 2.22669ZM68.4507 2.35599C68.0649 2.37248 67.6839 2.46279 67.3366 2.64126C66.5591 3.03154 65.9753 3.72251 65.5152 4.45653C64.852 5.53083 64.4117 6.7315 64.063 7.94538C63.5703 7.85025 63.0402 7.88637 62.5999 8.14748C61.8774 8.56206 61.4146 9.30651 61.0524 10.044C60.5481 11.1232 60.26 11.5235 60.0419 12.6957C60.016 11.9519 60.0792 11.9565 59.9277 11.2204C59.7972 10.5259 59.4465 9.85303 58.8716 9.44053C57.8168 8.6822 56.2905 8.83919 55.3112 9.65794C54.7933 10.0815 54.3673 10.8435 54.3319 11.5227C55.0034 11.3949 55.7081 11.3054 56.2967 11.7408C56.9035 12.2109 56.8431 12.9573 56.873 13.685C56.909 15.5961 56.8091 17.4495 56.7486 19.3558C56.7343 19.994 56.718 20.6773 57.0204 21.2571C57.248 21.7023 57.7326 21.9293 58.2022 21.9863C59.0741 22.0967 60.2742 21.7936 61.1393 21.6797C61.0231 21.4102 60.8749 21.1024 60.756 20.8344C60.3815 20.0719 60.0187 19.444 60.0445 18.5919C60.0765 16.8474 60.137 15.0627 60.8777 13.4717C61.3949 12.3558 62.0277 11.6336 63.1728 11.1787C62.7086 13.9926 62.4463 16.5509 62.4327 19.4023C62.4334 20.0405 62.731 20.7384 63.0015 21.3307C63.1755 21.7155 63.5689 21.939 63.9672 21.9988C64.5591 22.0925 65.1633 22.0343 65.7566 21.9711C65.9924 21.9551 66.2397 21.8523 66.4667 21.9683C67.4093 22.2648 68.445 21.8954 69.1498 21.228C70.0061 20.4322 70.5517 19.3495 70.9208 18.2426C71.3421 16.928 71.5406 15.5183 71.3625 14.1399C71.2443 13.3058 70.9581 12.4135 70.2649 11.8961C69.6254 11.426 68.7719 11.5037 68.0535 11.7135C67.1191 11.9933 66.5931 12.1747 66.0263 12.9573C66.0596 12.0712 66.084 11.9222 66.1615 11.0396C67.1829 10.9229 68.3369 10.6612 69.2264 10.1244C70.2914 9.49244 70.9758 8.35464 71.3863 7.1609C71.7288 6.17271 71.6513 4.94613 71.2123 3.98225C70.9024 3.29128 70.3044 2.74195 69.5935 2.51348C69.2272 2.39681 68.8366 2.3395 68.4507 2.35599ZM30.7616 2.35606C30.6692 2.35845 30.5771 2.36442 30.4857 2.37388C29.8068 2.45583 29.1884 2.82114 28.7032 3.301C27.9984 3.98919 27.5064 4.86758 27.1074 5.76758C26.5189 7.1134 25.9822 8.38319 25.6886 9.82276C25.1932 9.74846 24.5645 9.73621 24.0739 9.63551C24.0025 9.83413 24.2797 10.1523 24.4496 10.3072C24.7813 10.6364 24.9186 10.7504 25.3542 10.8351C24.8839 13.5927 25.0585 16.3495 25.0347 19.146C25.0435 19.8633 24.9682 20.637 25.327 21.287C25.5689 21.7314 26.0677 21.9418 26.5421 21.9939C27.4017 22.0904 28.6338 21.8819 29.486 21.7701C29.0252 21.0986 28.661 20.2903 28.5162 19.5014C28.2553 17.8542 28.0576 16.228 28.0664 14.5621C28.0773 14.435 28.0304 14.2828 28.1323 14.1828C28.3362 13.9328 28.5965 13.705 28.9166 13.6391C29.3195 13.5696 29.7715 13.7245 30.0005 14.0828C30.2785 14.5099 29.7546 15.0391 29.7859 15.5384C29.8498 17.3856 30.04 19.228 30.2425 21.0738C30.324 21.7648 30.5021 22.4884 30.9758 23.0141C31.5949 23.6828 32.6244 23.8515 33.4603 23.5751C34.1494 23.3231 34.9663 22.479 35.5208 21.9943C34.9554 21.9241 34.5591 21.8251 34.1595 21.391C33.6295 20.8355 33.1861 20.3765 33.1351 19.6293C33.057 18.2141 33.2116 16.8099 33.3162 15.403C33.376 14.5433 33.4331 13.6599 33.2109 12.8183C33.0757 12.2933 32.9309 11.6833 32.4334 11.459C31.8429 11.1965 30.848 11.0301 30.2431 11.2621C29.3501 11.5968 28.8371 11.8605 28.2485 12.6161C28.2716 11.8126 28.3586 11.7929 28.4374 10.9936C29.2455 10.8999 29.885 10.5454 30.6264 10.1996C31.6064 9.74817 32.4776 9.02592 33.0553 8.09398C33.6642 7.11968 33.9584 5.91138 33.7369 4.76624C33.601 4.02528 33.2075 3.32183 32.5986 2.88502C32.0675 2.49917 31.408 2.33929 30.7616 2.35606ZM101.984 4.0669C100.729 5.73634 98.8411 6.78705 96.8832 7.34469C95.2093 7.82941 93.4683 8.02247 91.7346 8.08844C89.3282 8.19469 87.0909 7.87369 84.6913 7.74383C84.7252 6.94384 84.7939 6.15794 84.5173 5.37808C84.3556 4.89475 83.8915 4.57868 83.4056 4.52729C82.571 4.42659 81.5156 4.72048 80.7266 4.97048C81.1874 5.79964 81.2649 6.70854 81.3491 7.637C80.151 7.63978 79.1472 7.64953 77.9688 7.89953C77.5223 8.00717 77.0514 8.14052 76.7143 8.47663C76.4703 8.71065 76.2209 9.08981 76.329 9.40717C76.4941 9.91967 77.1587 10.58 77.5026 10.9751C78.662 9.94043 79.8555 9.94877 81.341 9.81266C81.3485 13.4606 81.2614 16.5426 81.0827 20.1829C81.0705 20.7342 80.8938 20.7844 80.974 21.333C80.6614 21.06 80.8339 20.8889 80.6484 20.5097C80.2502 19.7202 79.9984 19.1164 79.9576 18.2442C79.9019 16.5776 79.9983 14.911 79.9793 13.2443C79.9854 12.9922 79.6528 12.8238 79.415 12.7572C78.927 12.6099 78.5106 12.5832 78.0267 12.6874C77.8398 12.0909 77.4626 11.6121 76.9196 11.2732C76.4622 10.9815 75.8879 11.0274 75.3857 11.1524C74.5294 11.3746 73.822 11.9835 73.296 12.6884C72.577 13.6571 71.9787 14.8247 71.7007 15.9997C71.4241 17.2129 71.4693 18.4675 71.6759 19.7008C71.8152 20.4654 72.089 21.262 72.6911 21.7745C73.2429 22.2516 74.0489 22.2988 74.7095 22.0543C75.3279 21.8168 75.803 21.3147 76.1924 20.7862C76.5376 20.3099 76.8312 19.796 77.0868 19.2641C77.1235 19.1759 77.1519 19.3297 77.2267 19.2714C77.3211 20.3443 77.4074 21.212 77.7574 22.2384C77.9409 22.7683 78.2529 23.3064 78.7789 23.5397C79.3607 23.8029 80.0267 23.6585 80.588 23.4071C81.1555 23.1668 81.6577 22.8009 82.1599 22.4467C83.1106 22.3433 84.2115 21.8882 85.0529 21.4416C84.5731 20.2187 84.5031 18.8652 84.4161 17.5618C84.272 14.7493 84.2822 12.2076 84.4915 9.40273C87.6102 9.5187 90.5753 10.1836 93.6694 10.5627C95.628 10.8099 97.6879 10.8965 99.6628 10.9257C100.79 10.9597 102.1 10.825 103.02 10.0965C103.721 9.55487 103.941 8.47666 103.944 7.58777V7.24611C103.797 5.96001 103.099 4.71759 101.984 4.0669ZM45.0022 4.50423C44.304 4.50927 43.1336 4.71388 42.4712 4.92595C42.7851 5.43844 43.1493 6.06626 43.2315 6.65584C43.3477 7.55305 43.2404 8.29853 43.2493 9.20339C42.3658 9.32561 41.7328 9.56208 40.8411 9.59124C40.4252 10.2871 41.175 11.3016 41.9626 11.2224C42.5077 11.2287 42.8449 11.4264 43.3906 11.4215C43.2968 14.2402 43.0987 16.8668 42.9458 19.6828C42.9172 20.3703 42.9597 20.462 42.9984 21.1502C42.5574 20.7939 42.5967 20.7457 42.4274 20.2019C42.1964 19.4596 42.1067 18.812 42.0829 18.0384C42.0537 16.462 41.8947 14.8857 41.879 13.3093C41.8906 13.0565 41.877 12.6394 41.6412 12.5727C41.1525 12.4248 40.4778 12.5714 39.9932 12.6721C39.8097 12.0776 39.529 11.6211 38.9935 11.278C38.4723 10.9475 37.3762 10.9654 36.8183 11.1417C35.7289 11.514 35.1906 12.3867 34.6455 13.3825C33.7145 14.5663 33.7519 16.2856 33.6506 17.7606C33.5928 18.7738 33.6561 19.8245 34.0489 20.7689C34.2861 21.337 34.6979 21.871 35.2843 22.0828C36.0401 22.353 36.914 22.1405 37.512 21.6085C38.301 20.9217 38.808 19.9717 39.2667 19.039C39.3156 19.087 39.3408 19.146 39.3428 19.2148C39.3884 19.88 39.4475 20.546 39.5617 21.2029C39.6956 21.9113 39.8756 22.6627 40.3738 23.203C40.7727 23.6405 41.4081 23.7592 41.9626 23.6349C42.8087 23.4481 43.5414 22.9446 44.2325 22.4363C45.1581 22.3252 46.3045 21.7378 47.1248 21.3031C46.5933 19.9378 46.4276 18.6564 46.3508 17.2043C46.2706 15.2155 46.1435 13.2238 46.2577 11.2377C46.8435 11.237 47.4286 11.2419 48.0145 11.2349C48.4209 11.2169 48.8843 11.1412 49.1555 10.7975C49.4022 10.4683 49.3485 10.0169 49.2309 9.64743C49.0481 9.10508 48.7558 8.59125 48.3494 8.19125C47.7365 8.44958 47.0963 8.6343 46.4487 8.77389C46.4929 8.21069 46.5465 7.6488 46.5982 7.08631C46.6559 6.45853 46.7409 5.77871 46.4391 5.19954C46.2244 4.77038 45.7555 4.54675 45.3022 4.5148C45.202 4.50681 45.102 4.50351 45.0022 4.50423ZM90.2851 11.3586C89.0958 11.3662 87.9819 11.9808 87.1514 12.8197C86.0451 13.9308 85.3471 15.4752 85.2996 17.0648C85.2758 18.2432 85.4756 19.4752 86.1314 20.4696C86.6777 21.3141 87.5606 21.8981 88.5161 22.1404C89.7027 22.4404 90.9857 22.3286 92.109 21.8397C92.6112 21.6106 93.1121 21.2953 93.4016 20.8022C93.6408 20.3995 93.7441 19.752 93.4295 19.4083C93.1073 19.0416 92.4557 18.6542 91.9936 18.5945C91.8468 18.9744 91.4724 19.4364 91.1856 19.7253C90.8213 20.1121 90.6364 20.2994 90.1042 20.2188C89.6292 20.1557 89.322 19.9776 89.0855 19.5658C88.76 19.0068 88.4155 18.5064 88.3924 17.8668C89.3934 18.1349 90.4773 18.2773 91.479 17.9322C92.2477 17.6766 92.8967 17.1016 93.2868 16.3822C93.8345 15.3745 93.9894 14.16 93.7699 13.0343C93.6639 12.5641 93.4975 12.0502 93.0918 11.7627C92.786 11.5523 92.3606 11.4273 92.0697 11.5877C91.5158 11.2593 90.9273 11.344 90.2851 11.3586ZM54.1336 11.5849C53.9306 11.5898 53.7417 11.6023 53.5422 11.6409C53.3165 11.6943 52.9517 11.6983 52.8144 11.9053C52.6989 12.224 52.6552 12.7696 52.592 13.103C52.3194 14.7536 52.1002 16.0667 52.1451 17.7375C52.0275 18.048 52.1083 18.146 51.8052 18.2912C51.53 18.419 51.4654 18.7627 51.3376 18.5273C51.0325 17.9836 50.957 17.3439 50.9054 16.7301C50.8061 15.1752 50.8585 13.5055 51.2004 11.9944C50.3543 11.8528 49.3415 11.6878 48.5063 11.9503C48.1835 12.0655 47.693 12.3445 47.6427 12.7278C47.4579 13.9486 47.5489 15.2731 47.5313 16.5085C47.5286 17.7884 47.6012 19.096 48.0246 20.312C48.2944 21.0821 48.7817 21.8439 49.5551 22.155C50.062 22.3481 50.6975 22.4474 51.1542 22.078C51.8664 21.521 52.2361 20.6516 52.5827 19.8335C52.741 20.9169 52.9442 22.0301 53.5008 22.9828C53.7828 23.4613 54.2388 23.8925 54.809 23.9328C55.859 23.987 57.0564 23.3065 57.7054 22.4399C57.1855 22.2954 56.8463 22.0358 56.5181 21.5962C55.9418 20.84 55.6255 20.0524 55.5011 19.1197C55.3047 17.4857 55.3779 15.8903 55.6593 14.2743C55.7918 13.6077 55.8182 12.8939 56.1179 12.2801C55.8692 12.0224 55.6673 11.8014 55.3275 11.7285C54.9966 11.6582 54.4719 11.5766 54.1336 11.5849Z" fill="url(#paint0_linear_196_2)"/>
<path d="M14.9556 30.0187C13.0782 29.4892 12.2765 29.1067 11.6274 28.4307C10.2202 26.9652 12.6978 25.2899 17.4352 24.5033C23.7692 23.4517 29.7601 23.549 54.771 25.1096C61.0649 25.5023 64.7339 25.6189 70.8042 25.6189C80.2759 25.6189 82.9483 25.3389 86.6201 23.9617L87.7317 23.5448L89.2332 23.951C91.4363 24.5469 92.7229 25.1512 93.4488 25.931C94.2078 26.7463 94.1944 27.1757 93.3911 27.7923C92.1907 28.7137 91.0669 28.7987 80.1958 28.7904C70.3316 28.7829 69.7321 28.7595 60.5663 28.0257C46.8078 26.9241 44.6726 26.8039 38.5956 26.7888C32.9957 26.775 31.2319 26.9157 27.25 27.6941C24.7817 28.1767 20.5942 29.3768 19.0117 30.0552C17.6212 30.6514 17.1848 30.6475 14.9556 30.0187Z" fill="#FFD37E"/>
<path d="M17.7218 31.4653C14.528 30.9157 13.0375 30.5014 11.8384 29.8299C10.0212 28.8122 9.65441 27.0624 10.9633 25.6551C11.7467 24.8129 13.4857 24.0429 15.7301 23.5446C16.0471 23.4742 16.0401 23.4667 15.3532 23.1367C13.0418 22.0263 11.6393 20.2304 10.8593 17.3818C10.5994 16.4327 10.5765 16.1783 10.5696 14.1648L10.5622 11.9785L9.97005 11.9065C8.99447 11.788 7.1074 11.3502 6.05704 10.9988C3.8663 10.2658 2.35481 9.20942 1.66488 7.92907C1.45697 7.54325 1.41418 7.30288 1.41264 6.51226C1.41105 5.68752 1.45008 5.48152 1.70433 4.97281C2.04737 4.28645 2.97198 3.33256 3.88706 2.72096C4.24235 2.48349 5.27189 1.91924 6.17491 1.46706L7.81678 0.644897L7.81758 1.72718C7.81865 3.13836 7.9715 4.03739 8.3434 4.81955C8.86694 5.92068 10.0221 6.97239 11.2986 7.51006L11.7823 7.71378L12.2163 6.87332C13.4721 4.44128 15.1187 2.73835 17.1297 1.79203C18.2089 1.28412 19.0277 1.07118 20.2082 0.991408C22.9407 0.806739 25.3488 1.90327 26.0875 3.66857C26.194 3.92296 26.3053 4.13091 26.3349 4.13068C26.3645 4.13 26.4988 3.94077 26.6334 3.70918C27.0721 2.95435 28.1372 1.93698 28.8493 1.59268C31.0178 0.544104 33.6275 1.3361 34.6573 3.35533C35.0629 4.15064 35.1979 4.88714 35.1365 5.97007C35.0543 7.4196 34.4145 8.86505 33.4013 9.89018L33.0238 10.2722L33.5516 10.7573C33.8418 11.024 34.1096 11.336 34.1465 11.4504C34.2056 11.6333 34.2964 11.5805 34.8972 11.0136C35.792 10.1694 36.7435 9.72299 37.7892 9.65704C38.2104 9.63048 38.7394 9.6588 38.9647 9.71989C39.2707 9.80292 39.3834 9.79933 39.4102 9.70567C39.532 9.28043 39.8175 8.58254 39.9335 8.42672C40.0401 8.28348 40.2974 8.23028 41.1156 8.18231L42.1614 8.121L42.1571 7.79271C42.1548 7.61215 42.0924 7.13116 42.0184 6.72385C41.9012 6.07815 41.8052 5.88365 41.269 5.20535C40.9308 4.77748 40.6541 4.39485 40.6541 4.35506C40.6541 4.31527 41.3203 4.07507 42.1345 3.82126C43.3892 3.43015 43.7872 3.35283 44.7454 3.31409C45.8208 3.2706 45.9046 3.28295 46.4672 3.5679C47.464 4.07267 47.9652 4.93171 48.0247 6.23713C48.0488 6.76328 48.0724 6.81061 48.3249 6.83706C49.4186 6.95164 50.655 8.66628 50.6845 10.1094L50.6936 10.5536L51.3833 10.6785C51.9777 10.7861 52.1444 10.7785 52.5897 10.6231C53.055 10.4607 53.1417 10.3758 53.4611 9.77054C54.586 7.63857 57.5531 6.95747 59.652 8.34943C59.9377 8.53885 60.2033 8.65526 60.2424 8.6081C60.2816 8.56095 60.4959 8.29644 60.7187 8.02032C61.2185 7.40101 61.9024 6.92822 62.5412 6.76031C63.0205 6.63435 63.0296 6.62349 63.3572 5.77915C64.8378 1.96384 67.6872 0.328416 70.542 1.65549C73.4708 3.01698 73.7211 7.32975 71.0315 10.0894C70.6551 10.4756 70.6476 10.4975 70.8538 10.6095C71.1317 10.7604 71.8068 11.4238 71.9577 11.6943C72.0669 11.8901 72.1056 11.8695 72.54 11.3845C73.0666 10.7967 74.0806 10.1134 74.6945 9.9326L75.1065 9.81131V9.20016C75.1065 8.44732 75.2354 8.09582 75.6784 7.64053C76.3188 6.98229 77.4157 6.59877 78.9555 6.49474C79.6032 6.45098 79.9514 6.38431 79.9514 6.30407C79.9514 6.2362 79.6543 5.78941 79.2913 5.3112C78.9282 4.833 78.6497 4.42504 78.6722 4.40464C78.6948 4.38425 79.3431 4.16614 80.1129 3.91996C81.2575 3.55391 81.7086 3.46281 82.5891 3.41988C83.9155 3.35521 84.403 3.47525 85.0354 4.02221C85.5906 4.50245 85.9221 5.17825 86.0274 6.04452L86.0991 6.63473L87.7894 6.75878C92.2619 7.08704 95.6712 6.6892 98.2542 5.53759C99.2484 5.09435 100.353 4.165 101.217 3.04432L101.607 2.53863L102.265 2.88563C103.265 3.41202 104.308 4.46691 104.763 5.41163C105.979 7.93364 105.175 10.554 102.841 11.6771C101.551 12.2975 99.7844 12.3996 96.1661 12.0627C95.5223 12.0028 94.98 11.9689 94.9611 11.9875C94.9422 12.0061 95.003 12.2768 95.0961 12.589C95.223 13.0144 95.2524 13.451 95.2136 14.3308C95.1534 15.6939 94.8755 16.5751 94.2256 17.464C93.8262 18.0103 93.8253 18.0139 94.0496 18.1682C94.1736 18.2535 94.4189 18.5699 94.5948 18.8713C94.858 19.3222 94.9147 19.5397 94.9156 20.0999C94.9178 21.5407 94.1588 22.335 91.902 23.2539L91.6329 23.3635L91.9559 23.4877C93.4176 24.0499 94.6751 24.9793 95.039 25.7664C95.2749 26.2766 95.3005 27.2703 95.0904 27.7643C94.6144 28.884 93.0436 29.5667 90.3409 29.8287C87.8284 30.0724 83.3983 30.1837 78.6594 30.1224C73.3753 30.0539 70.0672 29.8856 59.6029 29.1524C47.9159 28.3336 42.4893 28.0998 36.9612 28.1771C33.9836 28.2187 32.6447 28.2821 31.2874 28.4455C27.0989 28.9497 23.7753 29.6713 20.4134 30.8062C18.4385 31.4729 18.1609 31.5409 17.7218 31.4653ZM19.1278 29.7248C22.8555 28.3848 27.5987 27.374 32.2564 26.9271C36.9486 26.4769 44.9388 26.6932 57.8265 27.6194C63.0871 27.9974 68.8589 28.3659 72.8456 28.5782C75.6363 28.7268 88.2653 28.6524 89.8026 28.4783C91.4156 28.2956 92.5216 28.0582 93.0992 27.7705C93.6579 27.4923 93.84 27.2603 93.84 26.8265C93.84 25.7203 92.0404 24.7507 88.7163 24.066C87.4168 23.7983 87.3587 23.7951 86.9192 23.9682C85.0752 24.6943 83.001 25.119 79.5746 25.4723C78.0107 25.6335 76.7567 25.6597 70.9615 25.6525C67.1951 25.6478 63.1492 25.5878 61.8639 25.5177C60.5908 25.4482 58.2168 25.3216 56.5884 25.2363C54.9599 25.1511 51.4959 24.9618 48.8904 24.8158C46.285 24.6697 43.0631 24.5022 41.7308 24.4434C40.3985 24.3847 38.3636 24.2887 37.2089 24.2301C33.5533 24.0446 25.3061 23.9787 23.0512 24.117C18.5129 24.3953 15.5555 24.8652 13.6681 25.6079C11.7191 26.3747 11.1389 27.2383 11.9674 28.1393C12.551 28.7741 13.9819 29.3117 16.376 29.7955C17.9353 30.1107 18.0636 30.1074 19.1278 29.7248ZM75.6737 24.2694L77.4596 24.2002L77.0931 23.7286C76.8916 23.4692 76.6673 23.0957 76.5948 22.8986C76.4421 22.4835 76.3685 22.4647 76.0028 22.7474C75.554 23.0943 74.6071 23.3865 73.9317 23.3865C72.7678 23.3865 71.8325 22.9007 71.1662 21.9499L70.7672 21.3806L70.2047 21.9179C69.8953 22.2133 69.4481 22.5688 69.2108 22.7079C68.5785 23.0783 67.429 23.3145 66.7087 23.2219C66.3831 23.18 65.6046 23.1557 64.9788 23.1679C64.0744 23.1856 63.7071 23.1458 63.1881 22.974L62.5351 22.7578L61.0959 22.9659C60.3044 23.0803 59.463 23.1776 59.2261 23.182C58.8759 23.1886 58.7407 23.255 58.5024 23.5375L58.2093 23.8849L59.0188 23.9522C59.464 23.9891 61.3643 24.0691 63.2416 24.1298C65.1189 24.1905 66.8729 24.2537 67.1394 24.2703C68.1853 24.3355 73.985 24.3348 75.6737 24.2694ZM52.2092 23.3071C52.1074 23.1471 52.0145 23.0015 52.003 22.9835C51.9915 22.9655 51.7958 23.0488 51.5683 23.1686C51.3408 23.2885 51.057 23.3933 50.9377 23.4015C50.6486 23.4215 51.4734 23.564 51.9883 23.5831L52.3945 23.5981L52.2092 23.3071ZM56.1806 23.3886C56.7165 23.1915 57.5573 22.6169 57.5573 22.4479C57.5573 22.4056 57.3898 22.3115 57.185 22.2387C56.3757 21.9512 55.6742 20.8183 55.4003 19.3563C55.1076 17.7938 55.3337 14.5845 55.8531 12.9323C56.0066 12.4438 56.032 12.2255 55.9471 12.1249C55.6492 11.7723 53.7796 11.5768 53.2696 11.845C53.1435 11.9113 52.9899 12.0583 52.9281 12.1718C52.7265 12.5419 52.4992 14.4085 52.4257 16.2976C52.3542 18.1353 52.3516 18.1503 52.0568 18.4399C51.8936 18.6003 51.7057 18.7315 51.6392 18.7315C51.4106 18.7315 51.0046 18.2261 50.8628 17.7651C50.6433 17.0516 50.7008 14.1527 50.9574 12.9955L51.162 12.0731L50.6913 12.0037C50.4325 11.9656 49.8345 11.9563 49.3625 11.9832C48.4066 12.0376 47.9891 12.245 47.8568 12.7311C47.5692 13.7879 47.4488 17.3316 47.6566 18.6258C48.0053 20.7974 48.9827 22.0112 50.3827 22.0112C50.7765 22.0112 50.9285 21.9456 51.3023 21.6145C51.5486 21.3962 51.9323 20.874 52.1551 20.454L52.56 19.6903L52.7537 20.6317C52.9979 21.819 53.5931 23.0231 54.1011 23.3574C54.5692 23.6654 55.3946 23.6778 56.1806 23.3886ZM81.0197 22.9507C81.35 22.7695 81.6964 22.5556 81.7897 22.4753C81.8829 22.3951 82.3189 22.238 82.7586 22.1262C83.5789 21.9177 84.7971 21.4171 84.7951 21.2893C84.7943 21.2499 84.719 20.9797 84.6276 20.6887C84.3037 19.6588 84.1545 17.9991 84.1524 15.4018C84.1507 13.3199 84.3174 9.44678 84.4133 9.3421C84.5112 9.23523 87.8294 9.60403 93.2478 10.324C96.471 10.7523 99.8462 10.9607 100.9 10.7966C102.749 10.5085 103.809 9.52248 103.935 7.97308C104.032 6.78818 103.371 5.32946 102.412 4.6107L102.036 4.32834L101.356 5.00891C98.7198 7.64919 94.1522 8.64738 87.2187 8.09845C86.1528 8.01407 85.117 7.94401 84.9169 7.94276L84.5531 7.94053L84.6285 6.99412C84.6935 6.17766 84.6746 5.9828 84.491 5.57495C84.268 5.07972 84.0218 4.89333 83.4122 4.75821C83.0401 4.67575 82.048 4.78976 81.3353 4.99689L80.9427 5.11096L81.1073 5.49425C81.272 5.87801 81.5806 7.61953 81.5052 7.74009C81.4831 7.77533 80.7248 7.83098 79.82 7.8638C77.6539 7.94235 76.7585 8.22658 76.515 8.91288C76.3803 9.29284 76.6009 9.88363 77.0898 10.4521L77.3847 10.7948L77.7259 10.5435C77.9136 10.4053 78.261 10.1973 78.4979 10.0814C79.0549 9.80879 80.6246 9.42165 81.173 9.42165H81.6L81.5312 11.8285C81.4933 13.1522 81.3915 15.2113 81.305 16.4041C81.2184 17.5969 81.1134 19.2599 81.0717 20.0996L80.9957 21.6264L80.7368 21.3163C79.9076 20.3232 79.7998 19.7224 79.7944 16.0658C79.7908 13.7112 79.7583 12.9988 79.6491 12.892C79.5567 12.8015 79.2401 12.7584 78.7275 12.7666L77.9467 12.7791L77.6302 12.1862C77.1839 11.3505 76.7475 11.0838 75.914 11.1374C75.055 11.1927 74.5398 11.4509 73.7479 12.2231C71.3465 14.5649 70.7859 20.2256 72.8164 21.6279C73.1989 21.8921 73.3666 21.9387 73.9161 21.9336C75.0387 21.9232 75.8626 21.2708 76.7574 19.6837L77.2047 18.8903L77.2877 19.5779C77.5288 21.5744 77.8989 22.6851 78.4604 23.0971C79.085 23.5553 80.015 23.5021 81.0197 22.9507ZM74.911 19.4493C74.5795 19.1235 74.8739 16.8368 75.4242 15.4652C75.6796 14.8285 76.3489 13.7592 76.492 13.7592C76.8649 13.7592 76.9508 16.4177 76.6127 17.4933C76.2376 18.687 75.2686 19.8007 74.911 19.4493ZM84.6505 23.2269C85.1922 23.081 85.8167 22.8872 86.0385 22.7961C86.4154 22.6414 86.4299 22.619 86.2616 22.4536C86.0933 22.2883 86.0353 22.3003 85.3735 22.6374C84.9841 22.8358 84.3679 23.1069 84.0041 23.2397C83.1241 23.5611 83.4324 23.555 84.6505 23.2269ZM42.6961 23.0397C42.9646 22.9249 43.4044 22.6774 43.6734 22.4898C43.9425 22.3022 44.3543 22.1139 44.5886 22.0714C45.0336 21.9907 46.5696 21.421 46.7113 21.2841C46.7563 21.2407 46.7203 20.9699 46.6319 20.6824C46.2608 19.4785 46.1256 17.9978 46.1276 15.1605C46.1288 13.6329 46.1624 12.1254 46.2024 11.8106L46.2752 11.2383L47.4407 11.2027C48.4214 11.1728 48.6544 11.132 48.9098 10.945C49.3531 10.6205 49.3836 9.91518 48.9876 9.14603C48.5275 8.2525 48.4448 8.20815 47.6917 8.45113C47.3443 8.56321 46.9222 8.68667 46.7537 8.72547L46.4472 8.79601L46.5383 7.75993C46.6716 6.24517 46.6327 5.67588 46.3673 5.25389C45.9845 4.64521 45.1066 4.50541 43.6756 4.82524L42.9402 4.98961L43.137 5.49868C43.3955 6.16716 43.581 7.5835 43.54 8.57526L43.5072 9.36872L42.3229 9.49103C41.6716 9.55831 41.0833 9.61781 41.0157 9.62328C40.8003 9.64068 40.7465 10.1515 40.922 10.5147C41.1863 11.062 41.5704 11.2201 42.6356 11.2201H43.5611L43.5639 11.564C43.5655 11.7531 43.4342 14.0449 43.2722 16.6568L42.9775 21.4059L42.6369 21.0186C41.997 20.2912 41.9013 19.6993 41.8396 16.0896L41.7846 12.8659L41.5155 12.727C41.3333 12.633 41.0364 12.6083 40.5972 12.6506L39.9481 12.7131L39.8071 12.3299C39.4766 11.4317 38.6832 10.9262 37.7921 11.0462C36.1545 11.2668 34.6517 13.0356 33.9593 15.5577C33.6295 16.7589 33.5989 19.3183 33.9041 20.1778C34.5482 21.992 36.3443 22.4152 37.7081 21.0741C38.1919 20.5984 39.1469 19.183 39.1469 18.9417C39.1469 18.8843 39.1953 18.8373 39.2545 18.8373C39.3138 18.8373 39.3626 19.0397 39.363 19.2869C39.3654 20.6238 39.7968 22.1871 40.3238 22.7684C40.912 23.4174 41.6233 23.4987 42.6961 23.0397ZM36.8727 19.1812C36.6094 18.5185 37.0547 16.2065 37.7061 14.8533C38.0127 14.2166 38.4757 13.6256 38.6059 13.7047C38.7892 13.816 38.96 15.1863 38.9014 16.0747C38.8107 17.4473 38.1903 18.8451 37.4642 19.3126C37.1147 19.5377 37.0046 19.5132 36.8727 19.1812ZM49.261 23.2862C48.8659 23.1684 48.5108 22.9719 48.1083 22.6483L47.7569 22.3658L46.8494 22.7968L45.942 23.2278L46.8241 23.2874C48.2091 23.3811 49.5769 23.3804 49.261 23.2862ZM33.9552 22.9718C34.294 22.8019 34.7246 22.5498 34.9121 22.4116L35.253 22.1603L34.6968 21.9673C34.0362 21.7381 33.4393 21.1671 33.2438 20.5775C32.9966 19.832 32.973 18.5093 33.1702 16.4561C33.4024 14.0386 33.3614 13.0323 33.0018 12.3193C32.2914 10.9109 30.3185 10.99 28.6902 12.4921C28.3791 12.7792 28.112 13.0016 28.0965 12.9864C28.038 12.9289 28.1995 11.0193 28.2728 10.9029C28.315 10.8357 28.732 10.6967 29.1994 10.5938C31.9191 9.99553 33.7637 7.98555 33.7637 5.62032C33.7637 4.36361 33.3324 3.53238 32.3483 2.89241C31.9915 2.6604 31.7623 2.60401 31.0209 2.56577C30.2379 2.52539 30.0596 2.55121 29.6094 2.7703C28.1365 3.48702 26.9595 5.49603 26.1156 8.73395C25.8618 9.70748 25.7802 9.89378 25.616 9.87379C25.5081 9.86064 25.1654 9.81838 24.8545 9.77989C24.3388 9.71599 24.2893 9.72822 24.2893 9.91963C24.2893 10.2176 24.5885 10.4458 25.1846 10.6025C25.6198 10.7169 25.6919 10.7715 25.6467 10.9526C25.3599 12.1006 25.0432 16.0888 25.0458 18.5199C25.0487 21.3499 25.2625 21.6448 27.3039 21.636C27.9256 21.6332 28.5648 21.5973 28.7242 21.5561L29.014 21.4812L28.8134 21.0321C28.3735 20.0469 28.0575 17.7077 28.0575 15.4356C28.0575 14.0876 28.062 14.0624 28.3452 13.8045C28.7387 13.4461 29.0863 13.3802 29.5175 13.5822C30.2427 13.9221 30.2686 14.0675 30.2319 17.6027C30.1959 21.0692 30.253 21.5957 30.748 22.3627C31.1719 23.0195 31.6826 23.2701 32.6094 23.276C33.2093 23.2799 33.4489 23.2257 33.9552 22.9718ZM28.4281 9.16933C28.5585 8.14431 29.0099 6.35533 29.2898 5.75449C29.5147 5.27181 29.6009 5.18023 29.8037 5.20862C30.3351 5.28302 30.5924 6.68964 30.2724 7.77113C30.065 8.47237 29.4414 9.21149 28.7756 9.54527L28.3534 9.75688L28.4281 9.16933ZM38.5895 22.6811C38.5386 22.4233 38.3747 22.4122 38.0702 22.6461L37.8011 22.8528L38.2127 22.8551C38.5398 22.857 38.6172 22.8213 38.5895 22.6811ZM24.1009 22.6474L24.9353 22.6459L24.5046 22.2227C24.2678 21.99 24.074 21.7504 24.074 21.6903C24.074 21.5627 22.8005 22.5485 22.7895 22.6847C22.7854 22.7351 22.891 22.7476 23.0243 22.7126C23.1575 22.6775 23.642 22.6482 24.1009 22.6474ZM20.3213 22.2266C22.2893 21.6291 24.0258 19.8246 24.5554 17.8267C25.0402 15.998 24.3667 14.7997 22.7228 14.566L22.2867 14.504L22.0983 15.105C21.6939 16.3956 20.449 17.8438 19.2869 18.3756C18.2771 18.8376 17.1062 18.6594 16.3635 17.9307C15.2279 16.8165 15.2135 14.4848 16.3247 11.6535L16.653 10.8168L17.322 10.7424C20.0415 10.4397 22.306 9.51077 23.7562 8.10295C25.6623 6.25257 25.5117 3.95279 23.416 2.90929C21.8915 2.15016 19.661 2.16843 17.8968 2.95447C15.8393 3.87118 13.8839 6.14601 12.9289 8.73395C12.8216 9.02488 12.6993 9.30223 12.6572 9.35026C12.4271 9.6131 9.83412 8.44805 8.82891 7.6302C8.17249 7.09613 7.50225 6.25718 7.08551 5.44798C6.82733 4.94665 6.52554 3.8631 6.52317 3.42896C6.52001 2.84753 6.41366 2.85028 5.36347 3.45896C4.25169 4.10332 3.22431 5.02918 2.92766 5.65406C2.63752 6.26523 2.73146 7.04737 3.16451 7.626C4.15144 8.94474 6.80675 10.0038 10.4545 10.5335C11.0467 10.6195 11.6806 10.6902 11.8631 10.6905C12.0457 10.6912 12.2198 10.7154 12.2501 10.7451C12.2803 10.7748 12.232 11.1438 12.1429 11.565C12.0344 12.0771 11.9805 12.9446 11.9802 14.1824C11.9797 15.8501 12.0079 16.1374 12.2639 17.0781C12.7008 18.6832 13.2032 19.585 14.2204 20.5898C14.8025 21.1649 15.2947 21.5426 15.7301 21.7483C17.1594 22.4236 19.0305 22.6185 20.3213 22.2266ZM17.3988 9.64747C17.3988 9.59714 17.5036 9.41861 17.6317 9.25075C18.7461 7.79027 20.0989 7.0798 20.8201 7.57621C21.3165 7.91782 21.0631 8.5898 20.2646 9.04963C19.4926 9.49417 17.3988 9.93097 17.3988 9.64747ZM91.0945 21.9716C92.5117 21.6691 93.517 20.8879 93.517 20.0892C93.517 19.7292 93.4518 19.5954 93.1325 19.2994C92.921 19.1035 92.6585 18.9431 92.5491 18.9431C92.4398 18.9431 92.2799 18.9166 92.1939 18.8841C92.0898 18.8449 91.9418 18.9854 91.752 19.3037C91.1554 20.3041 90.1624 20.683 89.4258 20.1915C88.9376 19.8657 88.6005 19.2546 88.4731 18.4644C88.4171 18.1167 88.3856 17.8172 88.4031 17.7989C88.4209 17.7805 88.6459 17.8232 88.9035 17.8937C89.1611 17.9642 89.7353 18.0214 90.1794 18.0208C91.7131 18.0185 92.8013 17.3437 93.4426 15.9972C94.048 14.7259 93.9411 12.6007 93.2391 11.9526C93.0283 11.758 92.9073 11.7299 92.5105 11.7834C92.1748 11.8286 91.8573 11.7863 91.4327 11.6396C89.9068 11.1126 88.2791 11.65 86.915 13.1313C85.8187 14.3217 85.3379 15.577 85.3358 17.2546C85.3338 18.8263 85.663 19.8163 86.4964 20.7452C87.5141 21.8794 89.2979 22.3552 91.0945 21.9716ZM88.5128 16.7111C88.7383 15.7001 89.5472 14.6125 90.3528 14.2368C90.8165 14.0206 90.9275 14.0976 91.0086 14.6918C91.1791 15.9409 90.3867 16.8437 88.9756 17.0079L88.4325 17.0711L88.5128 16.7111ZM60.443 21.6292L60.7782 21.5633L60.5285 21.0731C60.0086 20.0527 59.8847 19.49 59.9001 18.2181C59.9246 16.1834 60.3088 14.4359 61.0241 13.1058C61.4019 12.4034 62.2913 11.4855 62.9427 11.1258L63.4009 10.8728L63.3333 11.2316C63.0177 12.9095 62.6666 17.9906 62.7493 19.6837C62.8034 20.7916 62.9767 21.2561 63.4493 21.5605C63.696 21.7194 64.0311 21.7493 65.7349 21.7648C67.6264 21.7819 67.7614 21.7696 68.2989 21.5316C69.1256 21.1656 69.8544 20.3735 70.4216 19.2248C71.2221 17.6036 71.6012 15.4789 71.3403 14.0766C70.9862 12.1736 70.0576 11.3639 68.5321 11.6279C67.6824 11.775 67.0886 12.0963 66.4168 12.7725L65.8474 13.3455L65.8581 12.6795C65.864 12.3133 65.9003 11.7522 65.9389 11.4328C65.9959 10.96 66.049 10.8467 66.2243 10.8232C68.823 10.4755 70.8701 8.87009 71.3941 6.76891C71.8152 5.0804 71.2196 3.52874 69.9023 2.88226C69.1875 2.53148 68.001 2.53885 67.2862 2.89849C66.101 3.49478 65.099 4.93263 64.3432 7.12166L64.0485 7.97529L63.5214 7.99391C63.2315 8.00417 62.8465 8.08788 62.6658 8.17998C61.7607 8.64125 60.8182 10.1948 60.3089 12.065C60.1619 12.6045 60.0278 13.0596 60.0108 13.0763C59.9938 13.093 59.9764 12.6703 59.9724 12.137C59.9665 11.3749 59.9133 11.0515 59.7236 10.6269C58.9533 8.90261 56.7779 8.4647 55.2725 9.73089C54.8343 10.0995 54.4423 10.7738 54.4374 11.1672C54.4351 11.3607 54.494 11.3758 55.1269 11.3437C56.3703 11.2806 56.9288 11.7573 57.1503 13.071C57.271 13.7867 57.2429 14.2355 56.8488 17.8812C56.5008 21.1005 56.983 21.8812 59.2365 21.747C59.7158 21.7184 60.2586 21.6654 60.443 21.6292ZM66.0179 20.0804C65.9784 19.8913 65.8992 18.9414 65.8418 17.9696C65.7288 16.0563 65.7671 15.8219 66.3413 14.9142C66.5867 14.5261 67.1868 13.9708 67.3605 13.9708C67.4138 13.9708 67.5433 14.0997 67.6483 14.2573C67.809 14.4984 67.8392 14.7875 67.8391 16.0822C67.8391 17.7289 67.7235 18.403 67.2818 19.335C67.0229 19.881 66.4981 20.4242 66.2294 20.4242C66.1525 20.4242 66.0574 20.2695 66.0179 20.0804ZM66.1706 9.55288C66.1713 8.71175 66.7289 6.36256 67.0702 5.76463C67.3888 5.20662 67.7608 5.18738 67.956 5.71881C68.1213 6.16874 68.1461 7.32679 68.0015 7.83835C67.8179 8.48766 67.306 9.15623 66.7222 9.5092L66.1704 9.84283L66.1706 9.55288ZM18.7524 17.0351C19.7554 16.558 20.7463 15.168 20.8992 14.0237C21.0324 13.0262 20.9282 13.092 22.282 13.1502C22.9419 13.1786 23.5622 13.2354 23.6605 13.2766C23.8725 13.3653 23.9227 13.2323 24.0177 12.331C24.0834 11.707 24.079 11.6932 23.7585 11.5172C23.4846 11.3669 23.0785 10.8714 22.9694 10.5545C22.9535 10.5084 22.6747 10.6155 22.3499 10.7924C21.5647 11.22 19.9523 11.7298 18.6908 11.9494L17.668 12.1274L17.3558 13.0226C16.9447 14.2016 16.8399 16.0286 17.1498 16.6142C17.4888 17.2547 18.0055 17.3904 18.7524 17.0351ZM87.0358 11.0009C87.0741 10.9089 85.8512 10.8095 85.7496 10.8963C85.7113 10.9289 85.6609 11.2732 85.6374 11.6613L85.5946 12.367L86.299 11.7229C86.6864 11.3686 87.0179 11.0437 87.0358 11.0009ZM80.1667 11.273C80.1667 10.9722 80.1227 10.9608 79.6213 11.1326L79.2592 11.2567L79.6322 11.389C80.1515 11.5733 80.1667 11.57 80.1667 11.273Z" fill="#0C5874"/>
</g>
<defs>
<linearGradient id="paint0_linear_196_2" x1="51.0848" y1="2.53934" x2="50.7122" y2="21.9494" gradientUnits="userSpaceOnUse">
<stop stop-color="#F57F22"/>
<stop offset="1" stop-color="#FECC68"/>
</linearGradient>
<clipPath id="clip0_196_2">
<rect width="104.54" height="31.2263" fill="white" transform="translate(0.96875 0.324219)"/>
</clipPath>
</defs>
</svg>
