<svg width="136" height="41" viewBox="0 0 136 41" fill="none" xmlns="http://www.w3.org/2000/svg">
<g clip-path="url(#clip0_196_18)">
<path fill-rule="evenodd" clip-rule="evenodd" d="M43.8626 22.397H41.6182C41.6084 23.0442 41.7265 23.6033 41.9726 24.0741C42.2187 24.5448 42.5509 24.9322 42.9693 25.2363C43.3877 25.5403 43.87 25.7634 44.4164 25.9056C44.9627 26.0479 45.5262 26.119 46.107 26.119C46.8255 26.119 47.458 26.0356 48.0043 25.8689C48.5506 25.7021 49.0083 25.4692 49.3774 25.1701C49.7466 24.871 50.0246 24.5154 50.2117 24.1034C50.3987 23.6915 50.4923 23.2453 50.4923 22.7647C50.4923 22.1762 50.3667 21.6931 50.1157 21.3156C49.8647 20.938 49.5669 20.6364 49.2224 20.4108C48.8778 20.1852 48.5309 20.021 48.1815 19.918C47.832 19.815 47.5588 19.7438 47.3619 19.7047C46.7025 19.5379 46.1684 19.4006 45.7599 19.2928C45.3514 19.1848 45.0316 19.0769 44.8002 18.9691C44.5689 18.8611 44.4139 18.7435 44.3351 18.616C44.2564 18.4884 44.217 18.3217 44.217 18.1158C44.217 17.8902 44.2662 17.7038 44.3646 17.5568C44.4631 17.4096 44.5886 17.287 44.7411 17.1889C44.8937 17.0908 45.0635 17.0222 45.2505 16.983C45.4376 16.9437 45.6246 16.9241 45.8116 16.9241C46.0971 16.9241 46.3604 16.9486 46.6016 16.9977C46.8428 17.0467 47.0569 17.1301 47.2439 17.2478C47.4309 17.3655 47.581 17.5273 47.6943 17.7333C47.8074 17.9392 47.8738 18.1991 47.8935 18.513H50.1379C50.1379 17.905 50.0223 17.3876 49.7909 16.9609C49.5596 16.5343 49.2471 16.1836 48.8533 15.909C48.4595 15.6344 48.0092 15.4358 47.5022 15.3132C46.9953 15.1906 46.4662 15.1293 45.915 15.1293C45.4425 15.1293 44.97 15.193 44.4975 15.3205C44.025 15.448 43.6018 15.6442 43.2277 15.909C42.8536 16.1738 42.5509 16.5048 42.3197 16.902C42.0883 17.2993 41.9726 17.7676 41.9726 18.3071C41.9726 18.7876 42.0637 19.1971 42.2458 19.5355C42.4279 19.8739 42.6666 20.1558 42.9619 20.3813C43.2572 20.6069 43.5919 20.7909 43.9659 20.9331C44.34 21.0753 44.7239 21.1955 45.1177 21.2935C45.5016 21.4014 45.8805 21.4995 46.2546 21.5878C46.6286 21.676 46.9633 21.779 47.2586 21.8967C47.554 22.0144 47.7926 22.1616 47.9748 22.3381C48.1568 22.5146 48.2479 22.745 48.2479 23.0295C48.2479 23.2943 48.179 23.5126 48.0412 23.6842C47.9034 23.8558 47.7312 23.9906 47.5244 24.0887C47.3177 24.1869 47.0963 24.2531 46.86 24.2874C46.6237 24.3217 46.4023 24.3388 46.1956 24.3388C45.8904 24.3388 45.5951 24.302 45.3096 24.2285C45.0241 24.155 44.7756 24.0422 44.5639 23.8901C44.3523 23.7381 44.1825 23.5396 44.0545 23.2943C43.9265 23.0491 43.8626 22.75 43.8626 22.397ZM54.1984 17.3214V25.8836H56.5165V17.3214L59.6763 17.3214V15.3794H51.0386V17.3214H54.1984ZM63.2052 20.1313V17.1742H65.7449C66.2763 17.1742 66.6751 17.2894 66.9409 17.52C67.2066 17.7504 67.3395 18.1206 67.3395 18.6307C67.3395 19.1603 67.2066 19.5428 66.9409 19.7782C66.6751 20.0136 66.2763 20.1313 65.7449 20.1313H63.2052ZM60.887 15.3794V25.8836H63.2052V21.779H65.5233C66.1041 21.779 66.5224 21.9065 66.7784 22.1616C67.0343 22.4165 67.2017 22.8187 67.2804 23.3679C67.3395 23.7896 67.3838 24.231 67.4133 24.692C67.4428 25.1529 67.5216 25.5501 67.6495 25.8836H69.9677C69.8594 25.7364 69.7783 25.5574 69.7241 25.3466C69.67 25.1357 69.6306 24.9126 69.6059 24.6772C69.5814 24.4418 69.5641 24.2114 69.5542 23.9858C69.5444 23.7602 69.5347 23.564 69.5247 23.3973C69.505 23.1325 69.4681 22.8676 69.414 22.6028C69.3598 22.3381 69.2737 22.0953 69.1556 21.8746C69.0375 21.654 68.8849 21.4627 68.6979 21.3008C68.5109 21.1391 68.2746 21.0189 67.9891 20.9405V20.911C68.5798 20.6756 69.0056 20.3324 69.2664 19.8812C69.5272 19.43 69.6577 18.8955 69.6577 18.2776C69.6577 17.8755 69.5863 17.5004 69.4436 17.1522C69.3008 16.804 69.0942 16.4975 68.8234 16.2327C68.5527 15.9678 68.2279 15.7594 67.8489 15.6074C67.47 15.4554 67.0442 15.3794 66.5717 15.3794L60.887 15.3794ZM71.5476 15.3794V25.8836H73.8658V15.3794H71.5476ZM78.2216 20.3226V17.1742H80.0229C80.2886 17.1742 80.5446 17.1938 80.7907 17.2331C81.0368 17.2723 81.2534 17.3483 81.4404 17.4611C81.6274 17.5739 81.7775 17.7333 81.8908 17.9392C82.0039 18.1452 82.0605 18.4149 82.0605 18.7483C82.0605 19.0818 82.0039 19.3515 81.8908 19.5575C81.7775 19.7635 81.6274 19.9228 81.4404 20.0356C81.2534 20.1484 81.0368 20.2244 80.7907 20.2637C80.5446 20.3029 80.2886 20.3226 80.0229 20.3226H78.2216ZM75.9034 15.3794V25.8836H78.2216V22.1173H80.6579C81.3173 22.1173 81.8784 22.0217 82.3411 21.8305C82.8037 21.6392 83.1802 21.3867 83.4706 21.0729C83.761 20.759 83.9726 20.3986 84.1055 19.9915C84.2384 19.5845 84.3049 19.1702 84.3049 18.7483C84.3049 18.3169 84.2384 17.9 84.1055 17.4979C83.9726 17.0958 83.761 16.7378 83.4706 16.4239C83.1802 16.1101 82.8037 15.8575 82.3411 15.6663C81.8784 15.475 81.3173 15.3794 80.6579 15.3794H75.9034ZM93.2969 18.5425H94.6997C94.6209 17.9834 94.4536 17.4906 94.1976 17.0639C93.9417 16.6373 93.6218 16.2817 93.2379 15.9973C92.854 15.7128 92.4159 15.4971 91.9237 15.3499C91.4316 15.2028 90.9099 15.1293 90.3586 15.1293C89.5515 15.1293 88.8354 15.2739 88.2103 15.5633C87.5852 15.8526 87.0635 16.2474 86.6452 16.7476C86.2267 17.2478 85.9094 17.8338 85.6928 18.5056C85.4762 19.1775 85.3679 19.8959 85.3679 20.661C85.3679 21.4259 85.4688 22.1419 85.6706 22.8089C85.8725 23.4757 86.1751 24.0545 86.5788 24.5448C86.9823 25.0352 87.4893 25.4202 88.0995 25.6997C88.7099 25.9792 89.4235 26.119 90.2405 26.119C91.5891 26.119 92.6522 25.7512 93.4298 25.0156C94.2075 24.28 94.6652 23.2501 94.803 21.9262H93.4004C93.3707 22.3577 93.2822 22.7598 93.1346 23.1325C92.9869 23.5052 92.7827 23.8264 92.5217 24.0961C92.2609 24.3659 91.9509 24.5767 91.5915 24.7287C91.2323 24.8808 90.8213 24.9567 90.3586 24.9567C89.7287 24.9567 89.1873 24.8391 88.7344 24.6037C88.2817 24.3683 87.9101 24.052 87.6196 23.6547C87.3293 23.2576 87.1152 22.7916 86.9774 22.2571C86.8396 21.7226 86.7707 21.1562 86.7707 20.558C86.7707 20.0087 86.8396 19.4791 86.9774 18.9691C87.1152 18.459 87.3293 18.0055 87.6196 17.6082C87.9101 17.2109 88.2792 16.8947 88.7271 16.6593C89.1749 16.4239 89.7139 16.3062 90.3439 16.3062C91.0821 16.3062 91.7195 16.4926 92.2559 16.8652C92.7925 17.238 93.1394 17.797 93.2969 18.5425ZM96.5453 15.3794V25.8836H97.9481V21.0729H103.5V25.8836H104.902V15.3794H103.5V19.8959H97.9481V15.3794L96.5453 15.3794ZM109.022 21.5436L110.809 16.6446H110.838L112.595 21.5436H109.022ZM110.07 15.3794L105.966 25.8836H107.398L108.579 22.7206H113.038L114.19 25.8836H115.74L111.621 15.3794H110.07ZM119.166 16.5563V25.8836H120.568V16.5563L124.083 16.5563V15.3794H115.652V16.5563H119.166Z" fill="#903232"/>
<path fill-rule="evenodd" clip-rule="evenodd" d="M20.6433 29.4911C20.6433 29.4911 20.5041 29.4657 20.4788 29.4588C20.0716 29.349 19.6499 29.4572 19.3481 29.6055C19.0539 29.7501 19.1789 29.69 19.1789 29.69C18.6881 29.9352 18.1681 30.1615 17.6224 30.3688C16.1394 30.9324 14.5344 31.3349 12.9186 31.5982C13.0617 31.3828 13.1937 31.1763 13.3135 30.9792C13.6371 30.4472 14.0518 29.6889 14.5358 28.7612C14.5358 28.7612 14.935 28.0586 15.0941 27.6911C15.2519 27.3264 15.0697 26.9824 14.8427 26.76C14.6158 26.5376 14.1547 26.0381 14.1547 26.0381C12.4856 24.2868 11.5752 22.1319 11.5752 19.8705C11.5752 14.501 16.7582 9.99255 23.3116 9.99255C29.8649 9.99255 35.048 14.501 35.048 19.8705C35.048 24.9463 30.4165 29.2526 24.3742 29.7086C24.241 29.7186 23.9731 29.6148 23.97 29.287C23.9521 27.317 23.9339 23.3841 23.9339 23.3841C23.9339 23.1994 24.0615 22.9739 24.2186 22.8805L28.7786 17.6134C28.8291 17.5551 28.7876 17.4644 28.7105 17.4645L17.6824 17.4699C17.6053 17.4699 17.5639 17.5606 17.6144 17.6189L22.1643 22.8738C22.32 22.971 22.4461 23.1998 22.4461 23.3841C22.4461 23.3841 22.4407 27.3287 22.4536 29.3008C22.4555 29.6028 22.1541 29.7183 22.0068 29.7032C21.546 29.656 21.0999 29.5808 20.6433 29.4911Z" fill="#903232"/>
</g>
<defs>
<clipPath id="clip0_196_18">
<rect width="135.088" height="40.1886" fill="white" transform="translate(0.317871 0.64917)"/>
</clipPath>
</defs>
</svg>
