<svg width="229" height="46" viewBox="0 0 229 46" fill="none" xmlns="http://www.w3.org/2000/svg">
<g clip-path="url(#clip0_141_2)">
<g clip-path="url(#clip1_141_2)">
<mask id="path-1-outside-1_141_2" maskUnits="userSpaceOnUse" x="163.805" y="6.02759" width="28" height="39" fill="black">
<rect fill="white" x="163.805" y="6.02759" width="28" height="39"/>
<path fill-rule="evenodd" clip-rule="evenodd" d="M176.077 42.2951C175.999 42.4484 174.912 40.6856 176.077 38.9993C176.077 38.9993 170.097 37.5432 169.864 34.1706C169.864 34.1706 169.087 27.7324 179.494 26.4293C164.661 21.2945 165.827 10.5646 165.827 11.2535C172.894 14.1665 177.553 19.7616 182.291 26.2761C182.835 26.4293 179.572 17.5389 189.669 10.0276C189.514 14.2431 190.213 16.0826 188.349 22.2142C186.64 26.6597 184.854 27.5794 184.854 27.7328C188.504 30.3386 186.796 36.547 186.019 39.996L179.806 41.9888L180.117 40.2259C178.952 40.839 177.088 41.7588 176.078 42.2954"/>
</mask>
<path fill-rule="evenodd" clip-rule="evenodd" d="M176.077 42.2951C175.999 42.4484 174.912 40.6856 176.077 38.9993C176.077 38.9993 170.097 37.5432 169.864 34.1706C169.864 34.1706 169.087 27.7324 179.494 26.4293C164.661 21.2945 165.827 10.5646 165.827 11.2535C172.894 14.1665 177.553 19.7616 182.291 26.2761C182.835 26.4293 179.572 17.5389 189.669 10.0276C189.514 14.2431 190.213 16.0826 188.349 22.2142C186.64 26.6597 184.854 27.5794 184.854 27.7328C188.504 30.3386 186.796 36.547 186.019 39.996L179.806 41.9888L180.117 40.2259C178.952 40.839 177.088 41.7588 176.078 42.2954" fill="white"/>
<path d="M176.077 38.9993L177.331 39.8656L178.59 38.0427L176.438 37.5185L176.077 38.9993ZM169.864 34.1706L171.385 34.0656L171.382 34.0267L171.377 33.9881L169.864 34.1706ZM179.494 26.4293L179.683 27.9416L179.993 24.9891L179.494 26.4293ZM165.827 11.2535H164.303V12.2738L165.246 12.6626L165.827 11.2535ZM182.291 26.2761L181.058 27.1726L181.369 27.5998L181.878 27.7431L182.291 26.2761ZM189.669 10.0276L191.192 10.0837L191.309 6.90785L188.759 8.80476L189.669 10.0276ZM188.349 22.2142L189.771 22.761L189.791 22.7099L189.807 22.6575L188.349 22.2142ZM184.854 27.7328H183.33V28.5173L183.968 28.9732L184.854 27.7328ZM186.019 39.996L186.484 41.4473L187.314 41.1811L187.506 40.3308L186.019 39.996ZM179.806 41.9888L178.305 41.7243L177.867 44.2113L180.271 43.4401L179.806 41.9888ZM180.117 40.2259L181.618 40.4904L182.157 37.4297L179.407 38.8772L180.117 40.2259ZM176.077 42.2951L174.718 41.6062C174.875 41.2959 175.191 40.9559 175.687 40.8281C176.12 40.7163 176.47 40.8263 176.63 40.892C176.928 41.0142 177.095 41.1996 177.113 41.2185C177.203 41.3127 177.23 41.3729 177.212 41.3407C177.192 41.3045 177.138 41.1879 177.101 41.0168C177.031 40.6911 177.042 40.2836 177.331 39.8656L176.077 38.9993L174.823 38.1331C173.947 39.4013 173.919 40.7184 174.121 41.6573C174.22 42.1185 174.38 42.5193 174.549 42.8232C174.625 42.961 174.742 43.1471 174.901 43.3148C174.953 43.3706 175.151 43.5798 175.473 43.7118C175.645 43.7824 176.005 43.8938 176.447 43.7798C176.952 43.6498 177.274 43.3039 177.437 42.984L176.077 42.2951ZM176.077 38.9993C176.438 37.5185 176.438 37.5186 176.438 37.5187C176.438 37.5187 176.439 37.5188 176.439 37.5188C176.439 37.5189 176.439 37.5189 176.44 37.519C176.44 37.5191 176.44 37.519 176.439 37.5189C176.439 37.5187 176.436 37.5182 176.433 37.5173C176.426 37.5155 176.413 37.5124 176.396 37.5078C176.361 37.4987 176.306 37.484 176.235 37.4637C176.091 37.4229 175.88 37.36 175.624 37.2741C175.107 37.1008 174.429 36.8416 173.756 36.495C173.074 36.1432 172.462 35.7343 172.026 35.2859C171.597 34.8443 171.411 34.442 171.385 34.0656L169.864 34.1706L168.344 34.2757C168.434 35.5855 169.082 36.63 169.84 37.4099C170.591 38.183 171.518 38.7705 172.36 39.2044C173.211 39.6434 174.043 39.959 174.654 40.1641C174.963 40.2675 175.221 40.3446 175.405 40.3967C175.497 40.4228 175.571 40.4427 175.624 40.4565C175.65 40.4634 175.671 40.4689 175.687 40.4728C175.695 40.4748 175.701 40.4764 175.706 40.4776C175.708 40.4782 175.711 40.4787 175.712 40.4792C175.713 40.4794 175.714 40.4796 175.715 40.4797C175.715 40.4798 175.715 40.4799 175.716 40.48C175.716 40.4801 175.716 40.4802 176.077 38.9993ZM169.864 34.1706C171.377 33.9881 171.377 33.9893 171.377 33.9904C171.378 33.9908 171.378 33.9919 171.378 33.9926C171.378 33.994 171.378 33.9953 171.378 33.9966C171.378 33.999 171.379 34.0011 171.379 34.0028C171.379 34.0063 171.379 34.0084 171.38 34.0091C171.38 34.0105 171.379 34.0064 171.379 33.9972C171.377 33.9787 171.375 33.94 171.375 33.8837C171.375 33.7706 171.381 33.5898 171.414 33.3614C171.48 32.9045 171.649 32.2693 172.069 31.5958C172.873 30.3092 174.809 28.552 179.683 27.9416L179.494 26.4293L179.305 24.917C173.773 25.6097 170.894 27.7232 169.484 29.9814C168.798 31.0804 168.511 32.1362 168.397 32.9272C168.34 33.3227 168.326 33.6551 168.327 33.8992C168.328 34.0215 168.332 34.1224 168.337 34.1988C168.34 34.2371 168.342 34.2693 168.345 34.2951C168.346 34.3081 168.347 34.3194 168.348 34.3291C168.349 34.3339 168.349 34.3383 168.35 34.3424C168.35 34.3444 168.35 34.3463 168.35 34.3481C168.35 34.349 168.351 34.3502 168.351 34.3507C168.351 34.3519 168.351 34.3532 169.864 34.1706ZM179.494 26.4293L179.993 24.9891C172.934 22.5456 169.846 18.8448 168.471 15.9951C167.772 14.5483 167.494 13.2759 167.389 12.4247C167.336 11.9984 167.327 11.6845 167.33 11.5158C167.331 11.4218 167.335 11.3984 167.331 11.4312C167.33 11.4372 167.325 11.4808 167.313 11.5405C167.309 11.5616 167.291 11.645 167.254 11.7482C167.237 11.7925 167.191 11.9159 167.099 12.0566C167.065 12.1086 166.743 12.629 166.042 12.7303C165.144 12.86 164.656 12.2188 164.552 12.0614C164.421 11.8621 164.37 11.6805 164.356 11.631C164.32 11.5003 164.311 11.395 164.309 11.375C164.302 11.3073 164.303 11.258 164.303 11.2535H165.827H167.351C167.351 11.2275 167.351 11.1622 167.343 11.0841C167.341 11.0588 167.331 10.9495 167.294 10.8164C167.28 10.7656 167.229 10.5831 167.097 10.3831C166.993 10.2252 166.504 9.58362 165.606 9.71342C164.905 9.81475 164.582 10.3355 164.548 10.3883C164.455 10.5297 164.408 10.6542 164.391 10.6999C164.352 10.8059 164.334 10.8933 164.329 10.9198C164.314 10.9903 164.307 11.0498 164.303 11.0768C164.29 11.1936 164.283 11.3351 164.282 11.4785C164.278 11.7848 164.294 12.2363 164.364 12.7993C164.503 13.9266 164.861 15.5285 165.725 17.3199C167.475 20.9467 171.221 25.1782 178.996 27.8696L179.494 26.4293ZM165.827 11.2535L165.246 12.6626C171.884 15.3986 176.329 20.6694 181.058 27.1726L182.291 26.2761L183.524 25.3797C178.777 18.8538 173.904 12.9343 166.408 9.84442L165.827 11.2535ZM182.291 26.2761L181.878 27.7431C182.093 27.8039 182.402 27.84 182.746 27.7383C183.099 27.634 183.354 27.4247 183.52 27.2185C183.797 26.8733 183.848 26.5075 183.861 26.4189C183.896 26.1758 183.878 25.9292 183.87 25.8209C183.86 25.6746 183.842 25.4971 183.826 25.3292C183.808 25.1518 183.79 24.9573 183.773 24.7411C183.707 23.8823 183.671 22.6818 183.902 21.2723C184.356 18.4979 185.866 14.7568 190.579 11.2504L189.669 10.0276L188.759 8.80476C183.376 12.8096 181.468 17.2694 180.894 20.7798C180.61 22.5126 180.657 23.9755 180.734 24.9753C180.753 25.2238 180.774 25.4436 180.792 25.6251C180.81 25.8162 180.823 25.9423 180.83 26.0391C180.84 26.1739 180.826 26.11 180.844 25.9839C180.848 25.9538 180.886 25.6302 181.143 25.3101C181.298 25.1165 181.542 24.9155 181.882 24.8151C182.212 24.7173 182.506 24.7531 182.704 24.8091L182.291 26.2761ZM189.669 10.0276L188.146 9.97147C187.982 14.4209 188.678 15.8914 186.891 21.771L188.349 22.2142L189.807 22.6575C191.747 16.2738 191.045 14.0653 191.192 10.0837L189.669 10.0276ZM188.349 22.2142L186.926 21.6674C186.124 23.7537 185.329 24.95 184.782 25.6165C184.509 25.9492 184.287 26.1645 184.132 26.3054C184.107 26.3284 183.929 26.4877 183.896 26.5177C183.864 26.5479 183.783 26.6238 183.702 26.7203C183.662 26.7693 183.587 26.8636 183.517 26.9935C183.454 27.1103 183.33 27.3738 183.33 27.7328H184.854H186.378C186.378 28.0822 186.257 28.3345 186.201 28.4386C186.138 28.5558 186.074 28.6357 186.047 28.6684C185.994 28.7324 185.952 28.7685 185.972 28.7502C186.044 28.6832 186.019 28.7107 186.187 28.5565C186.421 28.3429 186.752 28.0217 187.139 27.5496C187.913 26.6065 188.865 25.1202 189.771 22.761L188.349 22.2142ZM184.854 27.7328L183.968 28.9732C185.163 29.8257 185.636 31.3596 185.573 33.5034C185.511 35.6276 184.937 37.8624 184.532 39.6612L186.019 39.996L187.506 40.3308C187.877 38.6806 188.547 36.0867 188.62 33.593C188.693 31.1189 188.196 28.2456 185.74 26.4923L184.854 27.7328ZM186.019 39.996L185.553 38.5447L179.341 40.5375L179.806 41.9888L180.271 43.4401L186.484 41.4473L186.019 39.996ZM179.806 41.9888L181.307 42.2533L181.618 40.4904L180.117 40.2259L178.616 39.9614L178.305 41.7243L179.806 41.9888ZM180.117 40.2259L179.407 38.8772C178.837 39.1769 178.092 39.5539 177.351 39.9297C176.618 40.3007 175.884 40.6726 175.363 40.9496L176.078 42.2954L176.794 43.6412C177.282 43.3816 177.985 43.0253 178.728 42.649C179.461 42.2774 180.231 41.888 180.826 41.5746L180.117 40.2259Z" fill="#DAFF9C" mask="url(#path-1-outside-1_141_2)"/>
</g>
<ellipse cx="180.128" cy="25.994" rx="6.46331" ry="12.4294" fill="#DAFF9C"/>
<path d="M179.623 9.90247C182.906 9.90251 185.732 10.564 188.102 11.8878C190.472 13.2117 192.298 15.1052 193.583 17.5675C194.867 20.0167 195.508 22.9362 195.508 26.3253C195.508 29.6878 194.867 32.594 193.583 35.0431C192.298 37.492 190.472 39.3785 188.102 40.7023C187.402 41.0893 186.662 41.4169 185.882 41.6896L185.94 40.9523L185.945 40.8966L185.89 40.9132L179.715 42.6661C179.684 42.6663 179.654 42.6681 179.623 42.6681C179.406 42.6681 179.19 42.6641 178.977 42.6583L179.159 41.34L179.171 41.2657L179.103 41.3009L176.789 42.4874C176.229 42.4138 175.684 42.3185 175.155 42.1993L173.44 41.0685L173.381 41.0294V41.6935C172.596 41.42 171.85 41.091 171.143 40.7023C168.773 39.3784 166.946 37.4922 165.662 35.0431C164.378 32.594 163.736 29.6878 163.736 26.3253C163.736 22.9363 164.378 20.0166 165.662 17.5675C166.946 15.1051 168.773 13.2117 171.143 11.8878C173.526 10.5641 176.353 9.90247 179.623 9.90247ZM19.9243 17.3292H16.6479L20.6587 32.3419L26.9741 10.4786H34.7778L40.855 32.5607L45.0249 17.3292H41.728V10.4786H54.8745V17.3292H51.9946L44.4888 42.0919H33.0903L28.6616 27.2189L24.1538 42.0919H12.5571L5.05127 17.3292H2.17139V10.4786H19.9243V17.3292ZM84.6411 23.048H78.0884L77.3931 17.2296H69.7876V22.5919H75.1499V29.3439H69.7876V35.3409H77.3931L78.0884 28.6486H84.6411V42.0919H56.5229V35.2413H59.6997V17.3292H56.5229V10.4786H84.6411V23.048ZM105.472 10.4786C109.709 10.4786 112.906 11.207 115.064 12.6632C117.235 14.1194 118.321 16.2901 118.321 19.1759C118.321 20.6982 117.943 22.0485 117.189 23.2267C116.448 24.4049 115.368 25.3056 113.952 25.9279C115.474 26.5368 116.673 27.4574 117.546 28.6886C118.42 29.9064 118.857 31.3689 118.857 33.0763C118.857 35.9756 117.797 38.2065 115.679 39.7687C113.561 41.3175 110.529 42.0919 106.584 42.0919H88.3354V35.2413H91.5122V17.3292H88.3354V10.4786H105.472ZM161.691 23.6241H155.137L154.343 16.9318H150.789V35.2413H156.547V42.0919H134.704V35.2413H140.462V16.9318H136.908L136.114 23.6241H129.56V10.4786H161.691V23.6241ZM215.288 10.4786C219.603 10.4787 222.86 11.319 225.057 13.0001C227.255 14.6682 228.354 17.1708 228.354 20.507C228.354 23.7368 227.262 26.1856 225.078 27.8536C222.893 29.5085 219.696 30.3361 215.486 30.3361H211.495V35.2413H217.253V42.0919H198.229V35.2413H201.407V17.3292H198.229V10.4786H215.288ZM179.623 16.714C178.14 16.714 177.001 17.5217 176.207 19.1368C175.412 20.7519 175.015 23.1284 175.015 26.2657C175.015 29.4032 175.412 31.7796 176.207 33.3947C177.001 35.0097 178.14 35.8175 179.623 35.8175C181.105 35.8174 182.243 35.0095 183.038 33.3947C183.832 31.7796 184.229 29.4032 184.229 26.2657C184.229 23.1283 183.832 20.752 183.038 19.1368C182.243 17.5218 181.105 16.7141 179.623 16.714ZM101.6 35.4396H104.678C107.22 35.4396 108.491 34.3213 108.491 32.0841C108.491 29.8468 107.22 28.7277 104.678 28.7277H101.6V35.4396ZM211.495 24.2794H213.937C215.287 24.2794 216.3 23.9951 216.975 23.4259C217.65 22.8566 217.988 21.9496 217.988 20.7052C217.988 19.4475 217.657 18.5405 216.995 17.9845C216.346 17.4154 215.393 17.131 214.135 17.131H211.495V24.2794ZM101.6 23.2072H104.261C106.724 23.2072 107.955 22.1946 107.955 20.1691C107.955 18.1436 106.724 17.131 104.261 17.131H101.6V23.2072Z" fill="#DAFF9C"/>
<path fill-rule="evenodd" clip-rule="evenodd" d="M176.039 42.1822C175.962 42.3365 174.883 40.5617 176.039 38.8639C176.039 38.8639 170.107 37.3978 169.876 34.0023C169.876 34.0023 169.105 27.5201 179.429 26.2082C164.714 21.0384 165.87 10.2352 165.87 10.9289C172.881 13.8617 177.503 19.495 182.203 26.0539C182.743 26.2082 179.507 17.2571 189.523 9.69458C189.369 13.9388 190.062 15.7909 188.213 21.9643C186.518 26.4401 184.746 27.3661 184.746 27.5205C188.367 30.1441 186.672 36.3948 185.902 39.8674L179.738 41.8737L180.046 40.0988C178.891 40.7162 177.042 41.6422 176.04 42.1824" fill="#1C3339"/>
<path fill-rule="evenodd" clip-rule="evenodd" d="M175.192 29.295C175.963 29.295 176.656 29.9896 176.656 30.7613C176.656 31.5329 175.963 32.1503 175.192 32.1503C174.422 32.1503 173.806 31.5329 173.806 30.7613C173.806 29.9895 174.422 29.295 175.192 29.295Z" fill="#DAFF9C"/>
</g>
<defs>
<clipPath id="clip0_141_2">
<rect width="227.707" height="45.7403" fill="white" transform="translate(0.646484)"/>
</clipPath>
<clipPath id="clip1_141_2">
<rect width="28.8363" height="20.8815" fill="white" transform="translate(163.721 6.60425)"/>
</clipPath>
</defs>
</svg>
